REM GENRE "Rock & Roll"
REM DATE 1990
REM DISCID 9D0A3F0E
REM COMMENT "ExactAudioCopy v0.99pb3"
PERFORMER "Р'СЂР°РІРѕ"
TITLE "РЎС‚РёР»СЏРіРё РёР· РњРѕСЃРєРІС‹"
FILE "Stilyagi iz Moskvy.flac" WAVE
  TRACK 01 AUDIO
    TITLE "РљРѕСЂРѕР»СЊ 'РћСЂР°РЅР¶РµРІРѕРµ Р»РµС‚Рѕ'"
    PERFORMER "Р'СЂР°РІРѕ"
    INDEX 01 00:00:00
  TRACK 02 AUDIO
    TITLE "Р—РІРµР·РґРЅС‹Р№ С€РµР№Рє"
    PERFORMER "Р'СЂР°РІРѕ"
    INDEX 00 03:35:23
    INDEX 01 03:37:23
  TRACK 03 AUDIO
    TITLE "Р'Р°СЃСЏ"
    PERFORMER "Р'СЂР°РІРѕ"
    INDEX 00 06:41:27
    INDEX 01 06:43:27
  TRACK 04 AUDIO
    TITLE "РЎРєРѕСЂС‹Р№ РїРѕРµР·Рґ"
    PERFORMER "Р'СЂР°РІРѕ"
    INDEX 00 09:56:71
    INDEX 01 09:58:71
